HIERARCHY
ROOT hip
{
  OFFSET 0 0 0
  CHANNELS 6 Xposition Yposition Zposition Zrotation Yrotation Xrotation
  JOINT abdomen
  {
    OFFSET 0 20.6881 -0.73152
    CHANNELS 3 Zrotation Xrotation Yrotation
    JOINT chest
    {
      OFFSET 0 11.7043 -0.48768
      CHANNELS 3 Zrotation Xrotation Yrotation
      JOINT neck
      {
        OFFSET 0 22.1894 -2.19456
        CHANNELS 3 Zrotation Xrotation Yrotation
        JOINT head
        {
          OFFSET -0.24384 7.07133 1.2192
          CHANNELS 3 Zrotation Xrotation Yrotation
          JOINT leftEye
          {
            OFFSET 4.14528 8.04674 8.04672
            CHANNELS 3 Zrotation Xrotation Yrotation
            End Site
            {
              OFFSET 1 0 0
            }
          }
          JOINT rightEye
          {
            OFFSET -3.6576 8.04674 8.04672
            CHANNELS 3 Zrotation Xrotation Yrotation
            End Site
            {
              OFFSET 1 0 0
            }
          }
        }
      }
      JOINT rCollar
      {
        OFFSET -2.68224 19.2634 -4.8768
        CHANNELS 3 Zrotation Xrotation Yrotation
        JOINT rShldr
        {
          OFFSET -8.77824 -1.95073 1.46304
          CHANNELS 3 Zrotation Xrotation Yrotation
          JOINT rForeArm
          {
            OFFSET -28.1742 -1.7115 0.48768
            CHANNELS 3 Zrotation Xrotation Yrotation
            JOINT rHand
            {
              OFFSET -22.5879 0.773209 7.07136
              CHANNELS 3 Zrotation Xrotation Yrotation
              JOINT rThumb1
              {
                OFFSET -1.2192 -0.487915 3.41376
                CHANNELS 3 Zrotation Xrotation Yrotation
                JOINT rThumb2
                {
                  OFFSET -3.37035 -0.52449 3.41376
                  CHANNELS 3 Zrotation Xrotation Yrotation
                  End Site
                  {
                    OFFSET -1.78271 -1.18214 1.43049
                  }
                }
              }
              JOINT rIndex1
              {
                OFFSET -7.75947 0.938293 5.60832
                CHANNELS 3 Zrotation Xrotation Yrotation
                JOINT rIndex2
                {
                  OFFSET -2.54057 -0.884171 1.56538
                  CHANNELS 3 Zrotation Xrotation Yrotation
                  End Site
                  {
                    OFFSET -1.62519 -0.234802 1.16502
                  }
                }
              }
              JOINT rMid1
              {
                OFFSET -8.24714 1.18213 3.41376
                CHANNELS 3 Zrotation Xrotation Yrotation
                JOINT rMid2
                {
                  OFFSET -3.10165 -0.590103 1.0647
                  CHANNELS 3 Zrotation Xrotation Yrotation
                  End Site
                  {
                    OFFSET -2.48547 -0.328903 0.83742
                  }
                }
              }
              JOINT rRing1
              {
                OFFSET -8.82822 0.546677 1.51678
                CHANNELS 3 Zrotation Xrotation Yrotation
                JOINT rRing2
                {
                  OFFSET -2.60934 -0.819778 -0.0198488
                  CHANNELS 3 Zrotation Xrotation Yrotation
                  End Site
                  {
                    OFFSET -2.33842 -0.294052 0.168128
                  }
                }
              }
              JOINT rPinky1
              {
                OFFSET -8.27202 -0.0477905 -0.4584
                CHANNELS 3 Zrotation Xrotation Yrotation
                JOINT rPinky2
                {
                  OFFSET -1.82734 -0.647385 -0.700984
                  CHANNELS 3 Zrotation Xrotation Yrotation
                  End Site
                  {
                    OFFSET -1.69225 -0.51767 -0.607171
                  }
                }
              }
            }
          }
        }
      }
      JOINT lCollar
      {
        OFFSET 2.68224 19.2634 -4.8768
        CHANNELS 3 Zrotation Xrotation Yrotation
        JOINT lShldr
        {
          OFFSET 8.77824 -1.95073 1.46304
          CHANNELS 3 Zrotation Xrotation Yrotation
          JOINT lForeArm
          {
            OFFSET 28.1742 -1.7115 0.48768
            CHANNELS 3 Zrotation Xrotation Yrotation
            JOINT lHand
            {
              OFFSET 22.5879 0.773209 7.07136
              CHANNELS 3 Zrotation Xrotation Yrotation
              JOINT lThumb1
              {
                OFFSET 1.2192 -0.487915 3.41376
                CHANNELS 3 Zrotation Xrotation Yrotation
                JOINT lThumb2
                {
                  OFFSET 3.37035 -0.52449 3.41376
                  CHANNELS 3 Zrotation Xrotation Yrotation
                  End Site
                  {
                    OFFSET 1.78271 -1.18214 1.43049
                  }
                }
              }
              JOINT lIndex1
              {
                OFFSET 7.75947 0.938293 5.60832
                CHANNELS 3 Zrotation Xrotation Yrotation
                JOINT lIndex2
                {
                  OFFSET 2.54057 -0.884171 1.56538
                  CHANNELS 3 Zrotation Xrotation Yrotation
                  End Site
                  {
                    OFFSET 1.62519 -0.234802 1.16502
                  }
                }
              }
              JOINT lMid1
              {
                OFFSET 8.24714 1.18213 3.41376
                CHANNELS 3 Zrotation Xrotation Yrotation
                JOINT lMid2
                {
                  OFFSET 3.10165 -0.590103 1.0647
                  CHANNELS 3 Zrotation Xrotation Yrotation
                  End Site
                  {
                    OFFSET 2.48547 -0.328903 0.83742
                  }
                }
              }
              JOINT lRing1
              {
                OFFSET 8.82822 0.546677 1.51678
                CHANNELS 3 Zrotation Xrotation Yrotation
                JOINT lRing2
                {
                  OFFSET 2.60934 -0.819778 -0.0198488
                  CHANNELS 3 Zrotation Xrotation Yrotation
                  End Site
                  {
                    OFFSET 2.33842 -0.294052 0.168128
                  }
                }
              }
              JOINT lPinky1
              {
                OFFSET 8.27202 -0.0477905 -0.4584
                CHANNELS 3 Zrotation Xrotation Yrotation
                JOINT lPinky2
                {
                  OFFSET 1.82734 -0.647385 -0.700984
                  CHANNELS 3 Zrotation Xrotation Yrotation
                  End Site
                  {
                    OFFSET 1.69225 -0.51767 -0.607171
                  }
                }
              }
            }
          }
        }
      }
    }
  }
  JOINT rButtock
  {
    OFFSET -8.77824 4.35084 1.2192
    CHANNELS 3 Zrotation Xrotation Yrotation
    JOINT rThigh
    {
      OFFSET 0 -1.70687 -2.19456
      CHANNELS 3 Zrotation Xrotation Yrotation
      JOINT rShin
      {
        OFFSET 0 -36.8199 0.73152
        CHANNELS 3 Zrotation Xrotation Yrotation
        JOINT rFoot
        {
          OFFSET 0.73152 -45.1104 -5.12064
          CHANNELS 3 Zrotation Xrotation Yrotation
          End Site
          {
            OFFSET -1.1221 -3.69964 12.103
          }
        }
      }
    }
  }
  JOINT lButtock
  {
    OFFSET 8.77824 4.35084 1.2192
    CHANNELS 3 Zrotation Xrotation Yrotation
    JOINT lThigh
    {
      OFFSET 0 -1.70687 -2.19456
      CHANNELS 3 Zrotation Xrotation Yrotation
      JOINT lShin
      {
        OFFSET 0 -36.8199 0.73152
        CHANNELS 3 Zrotation Xrotation Yrotation
        JOINT lFoot
        {
          OFFSET -0.73152 -45.1104 -5.12064
          CHANNELS 3 Zrotation Xrotation Yrotation
          End Site
          {
            OFFSET 1.1221 -3.69964 12.103
          }
        }
      }
    }
  }
}
MOTION
Frames:	5
Frame Time:	0.00833333
-26.745 84.5375 -99.614 -104.706 -70.3976 -617.092 10.1826 16.0534 9.95036 -3.55313 2.53907 3.05298 11.5366 9.23286 8.0197 -19.6369 -19.3325 11.0438 -0.0 0.0 0.0 -0.0 0.0 0.0 -5.376e-14 -2.00637e-12 -2.21023e-13 74.1985 51.0028 -10.3467 -26.0372 -46.2373 95.9973 -0.97227 -26.822 -4.07499 1.40602e-10 8.58177e-11 1.41146e-10 2.42935e-10 1.50905e-10 2.45261e-10 1.40604e-10 8.58232e-11 1.4113e-10 7.73091 5.47488 0.417314 1.40594e-10 8.58286e-11 1.41142e-10 2.90554 0.965183 0.102902 1.40608e-10 8.58293e-11 1.41141e-10 10.2786 0.731801 0.0259123 1.40601e-10 8.58297e-11 1.41148e-10 2.22167 -0.733487 -0.20892 -5.38969e-14 -2.00634e-12 -2.21226e-13 -100.15 22.7655 52.6935 28.2619 -32.5558 -71.384 0.791532 -24.4152 3.65776 4.12611e-10 -7.27414e-10 -4.93956e-10 7.23738e-10 -1.25515e-09 -8.48397e-10 4.12603e-10 -7.27413e-10 -4.93942e-10 -7.73091 5.47488 -0.417314 4.12609e-10 -7.27415e-10 -4.93951e-10 -2.90554 0.965183 -0.102902 4.126e-10 -7.27414e-10 -4.93949e-10 -10.2786 0.731801 -0.0259123 4.12614e-10 -7.27412e-10 -4.93951e-10 -2.22167 -0.733487 0.20892 -2.03217e-16 0.0 -3.88251e-19 11.1612 4.21872 -6.76691 -0.375669 43.4602 1.02488 -0.912374 3.65324 -15.8168 2.03217e-16 0.0 3.88251e-19 -3.14078 -27.5956 -5.68052 0.259761 36.9676 -0.684468 4.12043 -14.1714 12.0774
-29.8171 83.9515 -99.7065 -102.691 -71.4848 -619.506 8.48736 16.1633 9.85479 -3.59427 2.42514 2.95095 11.6349 9.57239 8.44736 -19.6032 -19.5364 11.9145 -0.0 0.0 0.0 -0.0 0.0 0.0 -7.30981e-14 -1.42828e-12 -1.50977e-13 76.9844 51.6181 -13.5956 -25.7963 -46.6561 96.9569 -0.926734 -26.2465 -3.97358 1.9888e-10 4.48067e-10 8.14651e-10 3.27907e-10 7.80953e-10 1.4102e-09 1.98882e-10 4.48073e-10 8.14632e-10 7.73091 5.47488 0.417314 1.98874e-10 4.48078e-10 8.14648e-10 2.90554 0.965183 0.102902 1.98887e-10 4.4808e-10 8.14647e-10 10.2786 0.731801 0.0259123 1.98879e-10 4.48081e-10 8.14655e-10 2.22167 -0.733487 -0.20892 -7.32123e-14 -1.42826e-12 -1.51176e-13 -99.6146 22.0277 51.8893 28.2455 -32.3647 -71.042 0.781243 -24.267 3.63265 1.32887e-10 -5.31123e-10 -6.32342e-10 2.42627e-10 -9.17463e-10 -1.09276e-09 1.32879e-10 -5.31122e-10 -6.32329e-10 -7.73091 5.47488 -0.417314 1.32885e-10 -5.31124e-10 -6.32336e-10 -2.90554 0.965183 -0.102902 1.32876e-10 -5.31123e-10 -6.32334e-10 -10.2786 0.731801 -0.0259123 1.3289e-10 -5.31121e-10 -6.32336e-10 -2.22167 -0.733487 0.20892 -2.03217e-16 0.0 -3.88251e-19 8.69331 1.88333 -6.85957 -0.533076 49.0102 1.11152 -0.96349 4.09064 -16.0182 2.03217e-16 0.0 3.88251e-19 -4.83642 -25.4163 -6.14668 0.255266 35.2981 -0.560196 4.05672 -13.7885 12.1161
-32.78 83.1513 -99.7464 -100.266 -72.7246 -622.219 6.33556 16.324 9.72486 -3.62027 2.23574 2.80743 11.9133 9.99537 8.86625 -19.704 -19.9668 12.7118 -0.0 0.0 0.0 -0.0 0.0 0.0 -3.25466e-14 -7.88654e-13 -8.96014e-14 80.2054 51.8434 -17.073 -25.7669 -46.5988 97.0287 -0.868894 -25.5004 -3.84324 5.5517e-11 4.59765e-10 7.19526e-10 8.08491e-11 7.99163e-10 1.24309e-09 5.55195e-11 4.5977e-10 7.19508e-10 7.73091 5.47488 0.417314 5.5512e-11 4.59774e-10 7.19523e-10 2.90554 0.965183 0.102902 5.55231e-11 4.59776e-10 7.19522e-10 10.2786 0.731801 0.0259123 5.55151e-11 4.59778e-10 7.19531e-10 2.22167 -0.733487 -0.20892 -3.26286e-14 -7.88648e-13 -8.97878e-14 -98.8258 22.0999 50.2817 28.2011 -31.9259 -70.2717 0.790384 -24.3934 3.65421 -1.41928e-10 -3.78983e-10 -7.18491e-10 -2.30528e-10 -6.55896e-10 -1.24703e-09 -1.41936e-10 -3.78983e-10 -7.18479e-10 -7.73091 5.47488 -0.417314 -1.41929e-10 -3.78984e-10 -7.18486e-10 -2.90554 0.965183 -0.102902 -1.41937e-10 -3.78984e-10 -7.18484e-10 -10.2786 0.731801 -0.0259123 -1.41925e-10 -3.78981e-10 -7.18486e-10 -2.22167 -0.733487 0.20892 -2.03217e-16 0.0 -3.88251e-19 6.05613 -1.14316 -6.38743 -0.751219 54.8182 1.30503 -1.36724 3.52909 -17.5497 2.03217e-16 0.0 3.88251e-19 -6.89783 -23.6001 -6.40924 0.264198 34.7456 -0.467982 3.9117 -14.0906 11.5
-35.6411 82.1895 -99.6884 -96.7613 -74.3407 -625.912 3.79179 16.5731 9.53684 -3.62458 1.97264 2.62309 12.314 10.4958 9.2909 -19.8953 -20.5526 13.4856 -0.0 0.0 0.0 -0.0 0.0 0.0 4.50481e-14 -1.25383e-13 -2.92276e-14 83.8404 51.7403 -20.8384 -25.9192 -46.2064 96.3666 -0.804673 -24.6264 -3.69294 -2.198e-10 2.70739e-10 1.60807e-10 -3.84422e-10 4.66847e-10 2.72371e-10 -2.19797e-10 2.70742e-10 1.6079e-10 7.73091 5.47488 0.417314 -2.19803e-10 2.70744e-10 1.60804e-10 2.90554 0.965183 0.102902 -2.19794e-10 2.70745e-10 1.60803e-10 10.2786 0.731801 0.0259123 -2.19802e-10 2.70747e-10 1.60813e-10 2.22167 -0.733487 -0.20892 4.50075e-14 -1.25396e-13 -2.93953e-14 -97.7841 22.6971 47.9309 28.1203 -31.3063 -69.2452 0.810709 -24.6724 3.70195 -4.2461e-10 -2.40125e-10 -7.55263e-10 -7.17909e-10 -4.17299e-10 -1.31633e-09 -4.24617e-10 -2.40124e-10 -7.5525e-10 -7.73091 5.47488 -0.417314 -4.2461e-10 -2.40126e-10 -7.55261e-10 -2.90554 0.965183 -0.102902 -4.24616e-10 -2.40126e-10 -7.55258e-10 -10.2786 0.731801 -0.0259123 -4.24608e-10 -2.40123e-10 -7.55262e-10 -2.22167 -0.733487 0.20892 -2.03217e-16 0.0 -3.88251e-19 3.26359 -4.89164 -5.51387 -1.10702 61.1673 1.66087 -2.16924 2.12522 -20.0836 2.03217e-16 0.0 3.88251e-19 -9.28791 -21.9653 -6.54066 0.278011 35.1628 -0.391216 3.66978 -14.7826 10.4079
-38.3407 81.1495 -99.5901 -91.7969 -76.0375 -630.896 1.22675 16.884 9.30588 -3.63111 1.66809 2.42264 12.7266 10.981 9.69223 -20.073 -21.2053 14.2039 -0.0 0.0 0.0 -0.0 0.0 0.0 1.19215e-13 4.18643e-13 1.99553e-14 87.5278 51.2351 -24.5369 -26.2387 -45.5762 95.0086 -0.752886 -23.8715 -3.56537 -4.29318e-10 3.95652e-11 -3.74926e-10 -7.36223e-10 6.19548e-11 -6.57199e-10 -4.29315e-10 3.95655e-11 -3.7494e-10 7.73091 5.47488 0.417314 -4.29319e-10 3.95658e-11 -3.74929e-10 2.90554 0.965183 0.102902 -4.29313e-10 3.95659e-11 -3.7493e-10 10.2786 0.731801 0.0259123 -4.29321e-10 3.95692e-11 -3.74918e-10 2.22167 -0.733487 -0.20892 1.19212e-13 4.18615e-13 1.98031e-14 -96.5849 23.7131 45.1024 28.0223 -30.7076 -68.3242 0.824584 -24.8628 3.73458 -6.6756e-10 -1.64426e-10 -8.50203e-10 -1.13572e-09 -2.8751e-10 -1.4851e-09 -6.67567e-10 -1.64426e-10 -8.5019e-10 -7.73091 5.47488 -0.417314 -6.6756e-10 -1.64428e-10 -8.50204e-10 -2.90554 0.965183 -0.102902 -6.67565e-10 -1.64428e-10 -8.50201e-10 -10.2786 0.731801 -0.0259123 -6.67559e-10 -1.64425e-10 -8.50206e-10 -2.22167 -0.733487 0.20892 -2.03217e-16 0.0 -3.88251e-19 0.726642 -9.11554 -4.36159 -1.65378 67.2548 2.21753 -3.17496 0.508456 -22.6139 2.03217e-16 0.0 3.88251e-19 -11.6772 -20.4206 -6.65999 0.288476 36.0229 -0.340813 3.3656 -15.6928 9.09619
